<svg width="1200" height="537" viewBox="0 0 1200 537" fill="none" xmlns="http://www.w3.org/2000/svg">
<path d="M0.68 11.04H23.44V14.48H0.68V11.04ZM10.12 14.08H14V37H10.12V14.08ZM22.2825 17.04H26.3625L34.0025 36.2L30.6825 37L22.2825 17.04ZM42.6425 17.04L30.6825 45H26.6425L31.8025 34.16L38.6025 17.04H42.6425ZM57.3184 37.44C55.7718 37.44 54.4784 37.1067 53.4384 36.44C52.3984 35.7733 51.5851 34.9067 50.9984 33.84C50.4118 32.7733 49.9851 31.64 49.7184 30.44C49.4518 29.24 49.3184 28.1067 49.3184 27.04C49.3184 25.6 49.4384 24.2533 49.6784 23C49.9451 21.7467 50.3718 20.64 50.9584 19.68C51.5451 18.72 52.3584 17.9733 53.3984 17.44C54.4384 16.9067 55.7451 16.64 57.3184 16.64C59.0518 16.64 60.6118 17.0933 61.9984 18C63.3851 18.88 64.4918 20.1067 65.3184 21.68C66.1718 23.2533 66.5984 25.04 66.5984 27.04C66.5984 29.0933 66.1718 30.9067 65.3184 32.48C64.4651 34.0267 63.3318 35.24 61.9184 36.12C60.5318 37 58.9984 37.44 57.3184 37.44ZM56.2384 34.08C57.5184 34.08 58.6518 33.7867 59.6384 33.2C60.6251 32.5867 61.3851 31.76 61.9184 30.72C62.4784 29.6533 62.7584 28.4267 62.7584 27.04C62.7584 24.9867 62.1851 23.2933 61.0384 21.96C59.9184 20.6267 58.3184 19.96 56.2384 19.96C54.9851 19.96 53.8651 20.2533 52.8784 20.84C51.9184 21.4267 51.1584 22.2533 50.5984 23.32C50.0384 24.3867 49.7584 25.6267 49.7584 27.04C49.7584 28.3733 49.9984 29.5733 50.4784 30.64C50.9851 31.68 51.7184 32.52 52.6784 33.16C53.6384 33.7733 54.8251 34.08 56.2384 34.08ZM45.9184 17.04H49.5984L49.7584 21.56V45H45.9184V17.04ZM80.2459 37.44C78.2993 37.44 76.5126 37.0267 74.8859 36.2C73.2593 35.3733 71.9659 34.1867 71.0059 32.64C70.0459 31.0933 69.5659 29.24 69.5659 27.08C69.5659 24.8933 70.0459 23.0267 71.0059 21.48C71.9659 19.9067 73.2593 18.7067 74.8859 17.88C76.5126 17.0533 78.2993 16.64 80.2459 16.64C82.1926 16.64 83.9659 17.0533 85.5659 17.88C87.1659 18.7067 88.4459 19.9067 89.4059 21.48C90.3659 23.0267 90.8459 24.8933 90.8459 27.08C90.8459 29.24 90.3659 31.0933 89.4059 32.64C88.4459 34.1867 87.1659 35.3733 85.5659 36.2C83.9659 37.0267 82.1926 37.44 80.2459 37.44ZM80.2459 34.12C81.4459 34.12 82.5526 33.8533 83.5659 33.32C84.6059 32.76 85.4326 31.96 86.0459 30.92C86.6859 29.8533 87.0059 28.5733 87.0059 27.08C87.0059 25.56 86.6859 24.2667 86.0459 23.2C85.4326 22.1333 84.6059 21.32 83.5659 20.76C82.5526 20.2 81.4459 19.92 80.2459 19.92C79.0459 19.92 77.9259 20.2 76.8859 20.76C75.8459 21.2933 75.0059 22.0933 74.3659 23.16C73.7259 24.2267 73.4059 25.5333 73.4059 27.08C73.4059 28.5733 73.7126 29.8533 74.3259 30.92C74.9659 31.96 75.8059 32.76 76.8459 33.32C77.8859 33.8533 79.0193 34.12 80.2459 34.12ZM102.904 33.88C101.25 33.88 99.7304 33.5467 98.3438 32.88C96.9571 32.2133 95.8504 31.24 95.0238 29.96C94.2238 28.68 93.8238 27.1333 93.8238 25.32C93.8238 23.5333 94.2238 22 95.0238 20.72C95.8238 19.4133 96.9038 18.4133 98.2638 17.72C99.6504 17 101.197 16.64 102.904 16.64C103.41 16.64 103.89 16.68 104.344 16.76C104.797 16.8133 105.237 16.9067 105.664 17.04H114.384V20.64C113.184 20.64 111.97 20.44 110.744 20.04C109.544 19.64 108.49 19.2133 107.584 18.76L107.464 18.56C108.37 19.04 109.157 19.6267 109.824 20.32C110.49 20.9867 110.997 21.7467 111.344 22.6C111.717 23.4267 111.904 24.36 111.904 25.4C111.904 27.16 111.504 28.68 110.704 29.96C109.93 31.24 108.85 32.2133 107.464 32.88C106.104 33.5467 104.584 33.88 102.904 33.88ZM109.024 45.08V44.16C109.024 42.8 108.65 41.8267 107.904 41.24C107.157 40.6533 106.064 40.36 104.624 40.36H99.9438C98.9571 40.36 98.1171 40.28 97.4238 40.12C96.7304 39.96 96.1571 39.72 95.7038 39.4C95.2504 39.1067 94.9171 38.7333 94.7038 38.28C94.4904 37.8533 94.3838 37.3733 94.3838 36.84C94.3838 35.8 94.7038 35.0133 95.3438 34.48C95.9838 33.9467 96.7971 33.6133 97.7838 33.48C98.7704 33.32 99.7704 33.3067 100.784 33.44L102.904 33.88C101.384 33.96 100.224 34.1067 99.4238 34.32C98.6238 34.5333 98.2237 34.9867 98.2237 35.68C98.2237 36.08 98.3838 36.4 98.7038 36.64C99.0238 36.88 99.4771 37 100.064 37H104.944C106.464 37 107.81 37.1867 108.984 37.56C110.184 37.96 111.117 38.6133 111.784 39.52C112.477 40.4533 112.824 41.72 112.824 43.32V45.08H109.024ZM102.904 30.64C103.864 30.64 104.73 30.44 105.504 30.04C106.304 29.6133 106.944 29.0133 107.424 28.24C107.904 27.44 108.144 26.48 108.144 25.36C108.144 24.2133 107.904 23.24 107.424 22.44C106.97 21.6133 106.344 21 105.544 20.6C104.744 20.1733 103.864 19.96 102.904 19.96C101.944 19.96 101.05 20.1733 100.224 20.6C99.4238 21 98.7838 21.6 98.3038 22.4C97.8238 23.2 97.5838 24.1867 97.5838 25.36C97.5838 26.48 97.8238 27.44 98.3038 28.24C98.7838 29.0133 99.4238 29.6133 100.224 30.04C101.024 30.44 101.917 30.64 102.904 30.64ZM118.028 17.04H121.868V37H118.028V17.04ZM128.628 20.44C127.241 20.44 126.054 20.76 125.068 21.4C124.108 22.04 123.334 22.8267 122.748 23.76C122.188 24.6933 121.814 25.5867 121.628 26.44L121.588 24.16C121.614 23.8933 121.681 23.48 121.788 22.92C121.921 22.3333 122.148 21.68 122.468 20.96C122.788 20.24 123.214 19.56 123.748 18.92C124.281 18.2533 124.948 17.7067 125.748 17.28C126.548 16.8533 127.508 16.64 128.628 16.64V20.44ZM140.33 37.4C138.624 37.4 137.064 36.96 135.65 36.08C134.237 35.2 133.117 33.9867 132.29 32.44C131.464 30.8667 131.05 29.0667 131.05 27.04C131.05 25.0133 131.464 23.2267 132.29 21.68C133.144 20.1067 134.304 18.88 135.77 18C137.237 17.0933 138.877 16.64 140.69 16.64C142.69 16.64 144.237 17.1067 145.33 18.04C146.45 18.9733 147.224 20.2267 147.65 21.8C148.104 23.3733 148.33 25.12 148.33 27.04C148.33 28.1067 148.197 29.24 147.93 30.44C147.664 31.64 147.237 32.7733 146.65 33.84C146.064 34.9067 145.25 35.7733 144.21 36.44C143.17 37.08 141.877 37.4 140.33 37.4ZM141.41 34.08C142.824 34.08 144.01 33.7733 144.97 33.16C145.957 32.52 146.69 31.6667 147.17 30.6C147.65 29.5333 147.89 28.3467 147.89 27.04C147.89 25.6267 147.637 24.3867 147.13 23.32C146.65 22.2533 145.917 21.4267 144.93 20.84C143.97 20.2533 142.797 19.96 141.41 19.96C139.33 19.96 137.717 20.6267 136.57 21.96C135.45 23.2933 134.89 24.9867 134.89 27.04C134.89 28.4267 135.17 29.6533 135.73 30.72C136.29 31.76 137.05 32.5867 138.01 33.2C138.997 33.7867 140.13 34.08 141.41 34.08ZM147.89 17.04H151.73V37H148.21C148.21 37 148.184 36.76 148.13 36.28C148.077 35.7733 148.024 35.1733 147.97 34.48C147.917 33.7867 147.89 33.1733 147.89 32.64V17.04ZM168.139 37.44C166.592 37.44 165.299 37.1067 164.259 36.44C163.219 35.7733 162.405 34.9067 161.819 33.84C161.232 32.7733 160.805 31.64 160.539 30.44C160.272 29.24 160.139 28.1067 160.139 27.04C160.139 25.6 160.259 24.2533 160.499 23C160.765 21.7467 161.192 20.64 161.779 19.68C162.365 18.72 163.179 17.9733 164.219 17.44C165.259 16.9067 166.565 16.64 168.139 16.64C169.872 16.64 171.432 17.0933 172.819 18C174.205 18.88 175.312 20.1067 176.139 21.68C176.992 23.2533 177.419 25.04 177.419 27.04C177.419 29.0933 176.992 30.9067 176.139 32.48C175.285 34.0267 174.152 35.24 172.739 36.12C171.352 37 169.819 37.44 168.139 37.44ZM167.059 34.08C168.339 34.08 169.472 33.7867 170.459 33.2C171.445 32.5867 172.205 31.76 172.739 30.72C173.299 29.6533 173.579 28.4267 173.579 27.04C173.579 24.9867 173.005 23.2933 171.859 21.96C170.739 20.6267 169.139 19.96 167.059 19.96C165.805 19.96 164.685 20.2533 163.699 20.84C162.739 21.4267 161.979 22.2533 161.419 23.32C160.859 24.3867 160.579 25.6267 160.579 27.04C160.579 28.3733 160.819 29.5733 161.299 30.64C161.805 31.68 162.539 32.52 163.499 33.16C164.459 33.7733 165.645 34.08 167.059 34.08ZM156.739 17.04H160.419L160.579 21.56V45H156.739V17.04ZM196.906 37V24.96C196.906 23.8933 196.733 23.0133 196.386 22.32C196.04 21.6267 195.52 21.1067 194.826 20.76C194.133 20.3867 193.253 20.2 192.186 20.2C191.013 20.2 189.933 20.48 188.946 21.04C187.986 21.5733 187.2 22.3067 186.586 23.24C185.973 24.1467 185.6 25.1733 185.466 26.32L185.426 24.04C185.56 23 185.84 22.0267 186.266 21.12C186.72 20.2133 187.28 19.4267 187.946 18.76C188.64 18.0933 189.44 17.5733 190.346 17.2C191.253 16.8267 192.24 16.64 193.306 16.64C194.426 16.64 195.44 16.8 196.346 17.12C197.253 17.4133 198.026 17.88 198.666 18.52C199.333 19.1333 199.84 19.8933 200.186 20.8C200.533 21.68 200.706 22.6933 200.706 23.84V37H196.906ZM181.906 37V9.04H185.706V37H181.906ZM203.572 17.04H207.652L215.292 36.2L211.972 37L203.572 17.04ZM223.932 17.04L211.972 45H207.932L213.092 34.16L219.892 17.04H223.932ZM244.237 37.4C242.53 37.4 240.97 36.96 239.557 36.08C238.143 35.2 237.023 33.9867 236.197 32.44C235.37 30.8667 234.957 29.0667 234.957 27.04C234.957 25.0133 235.37 23.2267 236.197 21.68C237.05 20.1067 238.21 18.88 239.677 18C241.143 17.0933 242.783 16.64 244.597 16.64C246.597 16.64 248.143 17.1067 249.237 18.04C250.357 18.9733 251.13 20.2267 251.557 21.8C252.01 23.3733 252.237 25.12 252.237 27.04C252.237 28.1067 252.103 29.24 251.837 30.44C251.57 31.64 251.143 32.7733 250.557 33.84C249.97 34.9067 249.157 35.7733 248.117 36.44C247.077 37.08 245.783 37.4 244.237 37.4ZM245.317 34.08C246.73 34.08 247.917 33.7733 248.877 33.16C249.863 32.52 250.597 31.6667 251.077 30.6C251.557 29.5333 251.797 28.3467 251.797 27.04C251.797 25.6267 251.543 24.3867 251.037 23.32C250.557 22.2533 249.823 21.4267 248.837 20.84C247.877 20.2533 246.703 19.96 245.317 19.96C243.237 19.96 241.623 20.6267 240.477 21.96C239.357 23.2933 238.797 24.9867 238.797 27.04C238.797 28.4267 239.077 29.6533 239.637 30.72C240.197 31.76 240.957 32.5867 241.917 33.2C242.903 33.7867 244.037 34.08 245.317 34.08ZM251.797 17.04H255.637V37H252.117C252.117 37 252.09 36.76 252.037 36.28C251.983 35.7733 251.93 35.1733 251.877 34.48C251.823 33.7867 251.797 33.1733 251.797 32.64V17.04ZM260.645 17.04H264.485V37H260.645V17.04ZM272.085 16.64C273.205 16.64 274.218 16.8 275.125 17.12C276.032 17.44 276.805 17.92 277.445 18.56C278.085 19.1733 278.578 19.9467 278.925 20.88C279.298 21.7867 279.485 22.8267 279.485 24V37H275.685V24.84C275.685 23.2667 275.298 22.0933 274.525 21.32C273.778 20.52 272.632 20.12 271.085 20.12C269.885 20.12 268.792 20.4 267.805 20.96C266.818 21.52 266.005 22.2667 265.365 23.2C264.752 24.1067 264.378 25.1333 264.245 26.28L264.205 24.08C264.338 23.0133 264.618 22.0267 265.045 21.12C265.498 20.2133 266.058 19.4267 266.725 18.76C267.418 18.0667 268.218 17.5467 269.125 17.2C270.032 16.8267 271.018 16.64 272.085 16.64ZM292.752 37.4C291.019 37.4 289.446 36.96 288.032 36.08C286.619 35.2 285.499 33.9867 284.672 32.44C283.872 30.8667 283.472 29.0667 283.472 27.04C283.472 25.0133 283.872 23.2267 284.672 21.68C285.472 20.1067 286.566 18.88 287.952 18C289.339 17.0933 290.939 16.64 292.752 16.64C294.326 16.64 295.632 16.9067 296.672 17.44C297.712 17.9733 298.526 18.72 299.112 19.68C299.699 20.64 300.112 21.7467 300.352 23C300.619 24.2533 300.752 25.6 300.752 27.04C300.752 28.1067 300.619 29.24 300.352 30.44C300.086 31.64 299.659 32.7733 299.072 33.84C298.486 34.9067 297.672 35.7733 296.632 36.44C295.592 37.08 294.299 37.4 292.752 37.4ZM293.832 34.08C295.246 34.08 296.432 33.7733 297.392 33.16C298.379 32.52 299.112 31.6667 299.592 30.6C300.072 29.5333 300.312 28.3467 300.312 27.04C300.312 25.6267 300.059 24.3867 299.552 23.32C299.072 22.2533 298.339 21.4267 297.352 20.84C296.392 20.2533 295.219 19.96 293.832 19.96C291.752 19.96 290.139 20.6267 288.992 21.96C287.872 23.2933 287.312 24.9867 287.312 27.04C287.312 28.4267 287.592 29.6533 288.152 30.72C288.712 31.76 289.472 32.5867 290.432 33.2C291.419 33.7867 292.552 34.08 293.832 34.08ZM300.312 9.04H304.152V37H300.632C300.552 36.4133 300.472 35.6933 300.392 34.84C300.339 33.9867 300.312 33.2533 300.312 32.64V9.04ZM338.213 29.4C338.053 31.0533 337.519 32.4933 336.613 33.72C335.733 34.92 334.573 35.84 333.133 36.48C331.693 37.12 330.093 37.44 328.333 37.44C326.386 37.44 324.599 37.04 322.973 36.24C321.346 35.4133 320.039 34.2267 319.053 32.68C318.093 31.1067 317.613 29.24 317.613 27.08C317.613 24.8933 318.093 23.0267 319.053 21.48C320.039 19.9067 321.346 18.7067 322.973 17.88C324.599 17.0533 326.386 16.64 328.333 16.64C330.093 16.64 331.679 16.96 333.093 17.6C334.506 18.24 335.666 19.16 336.573 20.36C337.479 21.5333 338.026 22.9467 338.213 24.6H334.733C334.279 23.16 333.466 22.0267 332.293 21.2C331.146 20.3467 329.826 19.92 328.333 19.92C327.106 19.92 325.959 20.2 324.893 20.76C323.853 21.32 323.013 22.1333 322.373 23.2C321.759 24.24 321.453 25.5333 321.453 27.08C321.453 28.5733 321.759 29.8533 322.373 30.92C323.013 31.96 323.853 32.76 324.893 33.32C325.933 33.8533 327.079 34.12 328.333 34.12C330.039 34.12 331.426 33.7067 332.493 32.88C333.559 32.0533 334.319 30.8933 334.773 29.4H338.213ZM351.848 37.44C349.901 37.44 348.114 37.0267 346.488 36.2C344.861 35.3733 343.568 34.1867 342.608 32.64C341.648 31.0933 341.168 29.24 341.168 27.08C341.168 24.8933 341.648 23.0267 342.608 21.48C343.568 19.9067 344.861 18.7067 346.488 17.88C348.114 17.0533 349.901 16.64 351.848 16.64C353.794 16.64 355.568 17.0533 357.168 17.88C358.768 18.7067 360.048 19.9067 361.008 21.48C361.968 23.0267 362.448 24.8933 362.448 27.08C362.448 29.24 361.968 31.0933 361.008 32.64C360.048 34.1867 358.768 35.3733 357.168 36.2C355.568 37.0267 353.794 37.44 351.848 37.44ZM351.848 34.12C353.048 34.12 354.154 33.8533 355.168 33.32C356.208 32.76 357.034 31.96 357.648 30.92C358.288 29.8533 358.608 28.5733 358.608 27.08C358.608 25.56 358.288 24.2667 357.648 23.2C357.034 22.1333 356.208 21.32 355.168 20.76C354.154 20.2 353.048 19.92 351.848 19.92C350.648 19.92 349.528 20.2 348.488 20.76C347.448 21.2933 346.608 22.0933 345.968 23.16C345.328 24.2267 345.008 25.5333 345.008 27.08C345.008 28.5733 345.314 29.8533 345.928 30.92C346.568 31.96 347.408 32.76 348.448 33.32C349.488 33.8533 350.621 34.12 351.848 34.12ZM366.865 9.04H370.705V37H366.865V9.04ZM385.832 37.44C383.885 37.44 382.099 37.0267 380.472 36.2C378.845 35.3733 377.552 34.1867 376.592 32.64C375.632 31.0933 375.152 29.24 375.152 27.08C375.152 24.8933 375.632 23.0267 376.592 21.48C377.552 19.9067 378.845 18.7067 380.472 17.88C382.099 17.0533 383.885 16.64 385.832 16.64C387.779 16.64 389.552 17.0533 391.152 17.88C392.752 18.7067 394.032 19.9067 394.992 21.48C395.952 23.0267 396.432 24.8933 396.432 27.08C396.432 29.24 395.952 31.0933 394.992 32.64C394.032 34.1867 392.752 35.3733 391.152 36.2C389.552 37.0267 387.779 37.44 385.832 37.44ZM385.832 34.12C387.032 34.12 388.139 33.8533 389.152 33.32C390.192 32.76 391.019 31.96 391.632 30.92C392.272 29.8533 392.592 28.5733 392.592 27.08C392.592 25.56 392.272 24.2667 391.632 23.2C391.019 22.1333 390.192 21.32 389.152 20.76C388.139 20.2 387.032 19.92 385.832 19.92C384.632 19.92 383.512 20.2 382.472 20.76C381.432 21.2933 380.592 22.0933 379.952 23.16C379.312 24.2267 378.992 25.5333 378.992 27.08C378.992 28.5733 379.299 29.8533 379.912 30.92C380.552 31.96 381.392 32.76 382.432 33.32C383.472 33.8533 384.605 34.12 385.832 34.12ZM400.45 17.04H404.29V37H400.45V17.04ZM411.05 20.44C409.663 20.44 408.476 20.76 407.49 21.4C406.53 22.04 405.756 22.8267 405.17 23.76C404.61 24.6933 404.236 25.5867 404.05 26.44L404.01 24.16C404.036 23.8933 404.103 23.48 404.21 22.92C404.343 22.3333 404.57 21.68 404.89 20.96C405.21 20.24 405.636 19.56 406.17 18.92C406.703 18.2533 407.37 17.7067 408.17 17.28C408.97 16.8533 409.93 16.64 411.05 16.64V20.44ZM413.632 30.52H417.152C417.286 31.5867 417.766 32.4667 418.592 33.16C419.419 33.8267 420.579 34.16 422.072 34.16C423.032 34.16 423.779 34.0533 424.312 33.84C424.846 33.6 425.219 33.28 425.432 32.88C425.672 32.48 425.792 32.04 425.792 31.56C425.792 30.9467 425.632 30.48 425.312 30.16C424.992 29.8133 424.539 29.5333 423.952 29.32C423.366 29.08 422.672 28.8533 421.872 28.64C420.992 28.4 420.112 28.12 419.232 27.8C418.352 27.48 417.539 27.0933 416.792 26.64C416.072 26.1867 415.486 25.6267 415.032 24.96C414.606 24.2667 414.392 23.4267 414.392 22.44C414.392 21.6133 414.566 20.84 414.912 20.12C415.286 19.4 415.806 18.7867 416.472 18.28C417.166 17.7467 417.966 17.3467 418.872 17.08C419.779 16.7867 420.779 16.64 421.872 16.64C423.392 16.64 424.672 16.92 425.712 17.48C426.752 18.0133 427.539 18.7733 428.072 19.76C428.632 20.7467 428.926 21.88 428.952 23.16H425.592C425.406 22.04 425.019 21.2267 424.432 20.72C423.846 20.1867 422.966 19.92 421.792 19.92C420.646 19.92 419.766 20.1467 419.152 20.6C418.539 21.0533 418.232 21.6667 418.232 22.44C418.232 23.0267 418.446 23.5067 418.872 23.88C419.299 24.2267 419.872 24.5333 420.592 24.8C421.312 25.0667 422.126 25.3467 423.032 25.64C423.886 25.9333 424.699 26.24 425.472 26.56C426.272 26.8533 426.979 27.2133 427.592 27.64C428.232 28.04 428.726 28.5733 429.072 29.24C429.446 29.88 429.632 30.68 429.632 31.64C429.632 32.8133 429.339 33.84 428.752 34.72C428.166 35.5733 427.312 36.24 426.192 36.72C425.099 37.2 423.766 37.44 422.192 37.44C420.752 37.44 419.526 37.2667 418.512 36.92C417.526 36.5733 416.686 36.12 415.992 35.56C415.326 35 414.806 34.4133 414.432 33.8C414.086 33.16 413.846 32.5467 413.712 31.96C413.606 31.3733 413.579 30.8933 413.632 30.52Z" fill="#8ED6FF"/>
<path d="M28.5333 219.788V204.452H90.5933V219.788H28.5333ZM3.38833 248.5L50.6467 132.762H68.8367L116.452 248.5H97.905L56.5317 143.997H62.9517L21.7567 248.5H3.38833ZM167.441 250.283C159.832 250.283 152.877 248.322 146.576 244.398C140.275 240.475 135.282 235.066 131.596 228.17C127.911 221.156 126.068 213.131 126.068 204.095C126.068 195.059 127.911 187.094 131.596 180.198C135.401 173.184 140.572 167.715 147.111 163.792C153.65 159.749 160.962 157.728 169.046 157.728C177.963 157.728 184.858 159.809 189.733 163.97C194.726 168.131 198.174 173.719 200.076 180.733C202.097 187.748 203.108 195.535 203.108 204.095C203.108 208.851 202.513 213.903 201.324 219.253C200.136 224.603 198.233 229.656 195.618 234.412C193.002 239.167 189.376 243.031 184.739 246.003C180.103 248.857 174.337 250.283 167.441 250.283ZM172.256 235.482C178.557 235.482 183.848 234.114 188.128 231.38C192.527 228.527 195.796 224.722 197.936 219.967C200.076 215.211 201.146 209.921 201.146 204.095C201.146 197.794 200.017 192.266 197.758 187.51C195.618 182.754 192.348 179.069 187.949 176.453C183.669 173.838 178.438 172.53 172.256 172.53C162.983 172.53 155.79 175.502 150.678 181.447C145.684 187.391 143.188 194.941 143.188 204.095C143.188 210.277 144.436 215.746 146.933 220.502C149.429 225.138 152.818 228.824 157.098 231.558C161.497 234.174 166.549 235.482 172.256 235.482ZM201.146 159.512H218.266V248.5H202.573C202.573 248.5 202.454 247.43 202.216 245.29C201.978 243.031 201.741 240.356 201.503 237.265C201.265 234.174 201.146 231.439 201.146 229.062V159.512Z" fill="#8ED6FF"/>
<path d="M279.638 135.987H286.074V179.5H279.638V135.987ZM296.932 146.044H303.368V179.5H296.932V146.044ZM316.107 145.374C317.984 145.374 319.683 145.642 321.202 146.178C322.722 146.714 324.018 147.519 325.091 148.592C326.164 149.62 326.991 150.916 327.572 152.48C328.198 154 328.51 155.743 328.51 157.71V179.5H322.141V159.118C322.141 156.481 321.493 154.514 320.197 153.218C318.945 151.877 317.023 151.207 314.431 151.207C312.419 151.207 310.587 151.676 308.933 152.615C307.279 153.553 305.916 154.805 304.843 156.369C303.815 157.889 303.189 159.61 302.966 161.532L302.899 157.844C303.122 156.056 303.592 154.402 304.307 152.883C305.067 151.363 306.005 150.044 307.123 148.927C308.285 147.765 309.626 146.893 311.146 146.312C312.665 145.686 314.319 145.374 316.107 145.374ZM334.59 146.044H356.246V151.609H334.59V146.044ZM342.233 137.194H348.603V179.5H342.233V137.194ZM387.564 168.639H393.666C393.308 170.829 392.459 172.795 391.118 174.539C389.777 176.282 388.011 177.667 385.821 178.695C383.631 179.723 381.061 180.238 378.111 180.238C374.625 180.238 371.518 179.5 368.792 178.025C366.065 176.55 363.919 174.516 362.355 171.924C360.791 169.331 360.008 166.314 360.008 162.873C360.008 159.386 360.768 156.347 362.288 153.754C363.808 151.117 365.909 149.061 368.59 147.586C371.272 146.111 374.334 145.374 377.776 145.374C381.396 145.374 384.436 146.089 386.894 147.519C389.352 148.949 391.163 151.072 392.325 153.888C393.531 156.66 394.023 160.124 393.8 164.281H366.378C366.601 166.292 367.205 168.08 368.188 169.644C369.216 171.209 370.557 172.438 372.211 173.332C373.909 174.226 375.854 174.673 378.044 174.673C380.502 174.673 382.558 174.114 384.212 172.997C385.866 171.879 386.983 170.426 387.564 168.639ZM377.843 150.871C374.937 150.871 372.524 151.654 370.602 153.218C368.68 154.738 367.406 156.771 366.78 159.319H387.363C387.184 156.593 386.201 154.514 384.413 153.084C382.625 151.609 380.435 150.871 377.843 150.871ZM400.578 146.044H407.015V179.5H400.578V146.044ZM418.345 151.743C416.021 151.743 414.032 152.279 412.378 153.352C410.769 154.425 409.473 155.743 408.49 157.308C407.551 158.872 406.925 160.37 406.612 161.8L406.545 157.978C406.59 157.531 406.702 156.838 406.88 155.9C407.104 154.916 407.484 153.821 408.02 152.615C408.557 151.408 409.272 150.268 410.166 149.195C411.06 148.078 412.177 147.161 413.518 146.446C414.859 145.731 416.468 145.374 418.345 145.374V151.743Z" fill="white"/>
<path d="M275.37 236.5V217.03H284.13C286.33 217.03 288.03 217.48 289.23 218.38C290.43 219.28 291.03 220.57 291.03 222.25C291.03 223.29 290.8 224.13 290.34 224.77C289.9 225.41 289.27 225.89 288.45 226.21C287.63 226.51 286.67 226.71 285.57 226.81L285.63 226.6C286.45 226.64 287.22 226.73 287.94 226.87C288.68 227.01 289.32 227.24 289.86 227.56C290.42 227.88 290.86 228.32 291.18 228.88C291.52 229.44 291.69 230.17 291.69 231.07C291.69 232.25 291.41 233.24 290.85 234.04C290.29 234.82 289.51 235.41 288.51 235.81C287.53 236.21 286.39 236.44 285.09 236.5H275.37ZM278.25 233.92H284.55C285.87 233.92 286.9 233.68 287.64 233.2C288.38 232.72 288.75 231.96 288.75 230.92C288.75 230.12 288.52 229.52 288.06 229.12C287.6 228.72 287 228.46 286.26 228.34C285.54 228.22 284.79 228.16 284.01 228.16H278.25V233.92ZM278.25 225.61H283.89C285.21 225.61 286.24 225.35 286.98 224.83C287.72 224.29 288.09 223.51 288.09 222.49C288.09 221.45 287.72 220.71 286.98 220.27C286.24 219.83 285.3 219.61 284.16 219.61H278.25V225.61ZM302.1 236.83C300.64 236.83 299.3 236.52 298.08 235.9C296.86 235.28 295.89 234.39 295.17 233.23C294.45 232.07 294.09 230.68 294.09 229.06C294.09 227.42 294.45 226.02 295.17 224.86C295.89 223.68 296.86 222.78 298.08 222.16C299.3 221.54 300.64 221.23 302.1 221.23C303.56 221.23 304.89 221.54 306.09 222.16C307.29 222.78 308.25 223.68 308.97 224.86C309.69 226.02 310.05 227.42 310.05 229.06C310.05 230.68 309.69 232.07 308.97 233.23C308.25 234.39 307.29 235.28 306.09 235.9C304.89 236.52 303.56 236.83 302.1 236.83ZM302.1 234.34C303 234.34 303.83 234.14 304.59 233.74C305.37 233.32 305.99 232.72 306.45 231.94C306.93 231.14 307.17 230.18 307.17 229.06C307.17 227.92 306.93 226.95 306.45 226.15C305.99 225.35 305.37 224.74 304.59 224.32C303.83 223.9 303 223.69 302.1 223.69C301.2 223.69 300.36 223.9 299.58 224.32C298.8 224.72 298.17 225.32 297.69 226.12C297.21 226.92 296.97 227.9 296.97 229.06C296.97 230.18 297.2 231.14 297.66 231.94C298.14 232.72 298.77 233.32 299.55 233.74C300.33 234.14 301.18 234.34 302.1 234.34ZM313.364 215.53H316.244V236.5H313.364V215.53ZM326.539 236.8C325.239 236.8 324.059 236.47 322.999 235.81C321.939 235.15 321.099 234.24 320.479 233.08C319.879 231.9 319.579 230.55 319.579 229.03C319.579 227.51 319.879 226.17 320.479 225.01C321.079 223.83 321.899 222.91 322.939 222.25C323.979 221.57 325.179 221.23 326.539 221.23C327.719 221.23 328.699 221.43 329.479 221.83C330.259 222.23 330.869 222.79 331.309 223.51C331.749 224.23 332.059 225.06 332.239 226C332.439 226.94 332.539 227.95 332.539 229.03C332.539 229.83 332.439 230.68 332.239 231.58C332.039 232.48 331.719 233.33 331.279 234.13C330.839 234.93 330.229 235.58 329.449 236.08C328.669 236.56 327.699 236.8 326.539 236.8ZM327.349 234.31C328.409 234.31 329.299 234.08 330.019 233.62C330.759 233.14 331.309 232.5 331.669 231.7C332.029 230.9 332.209 230.01 332.209 229.03C332.209 227.97 332.019 227.04 331.639 226.24C331.279 225.44 330.729 224.82 329.989 224.38C329.269 223.94 328.389 223.72 327.349 223.72C325.789 223.72 324.579 224.22 323.719 225.22C322.879 226.22 322.459 227.49 322.459 229.03C322.459 230.07 322.669 230.99 323.089 231.79C323.509 232.57 324.079 233.19 324.799 233.65C325.539 234.09 326.389 234.31 327.349 234.31ZM332.209 215.53H335.089V236.5H332.449C332.389 236.06 332.329 235.52 332.269 234.88C332.229 234.24 332.209 233.69 332.209 233.23V215.53ZM339.642 240.82L339.042 240.04C339.342 239.52 339.622 238.99 339.882 238.45C340.142 237.91 340.282 237.37 340.302 236.83L338.772 236.5V233.41H342.432V235.63C342.432 236.91 342.152 237.95 341.592 238.75C341.052 239.57 340.402 240.26 339.642 240.82ZM365.134 234.88H363.904L373.474 217.03H376.354V236.5H373.474V221.56L374.104 221.71L366.034 236.5H363.004L354.934 221.74L355.564 221.59V236.5H352.684V217.03H355.564L365.134 234.88ZM392.172 231.64H394.902C394.742 232.62 394.362 233.5 393.762 234.28C393.162 235.06 392.372 235.68 391.392 236.14C390.412 236.6 389.262 236.83 387.942 236.83C386.382 236.83 384.992 236.5 383.772 235.84C382.552 235.18 381.592 234.27 380.892 233.11C380.192 231.95 379.842 230.6 379.842 229.06C379.842 227.5 380.182 226.14 380.862 224.98C381.542 223.8 382.482 222.88 383.682 222.22C384.882 221.56 386.252 221.23 387.792 221.23C389.412 221.23 390.772 221.55 391.872 222.19C392.972 222.83 393.782 223.78 394.302 225.04C394.842 226.28 395.062 227.83 394.962 229.69H382.692C382.792 230.59 383.062 231.39 383.502 232.09C383.962 232.79 384.562 233.34 385.302 233.74C386.062 234.14 386.932 234.34 387.912 234.34C389.012 234.34 389.932 234.09 390.672 233.59C391.412 233.09 391.912 232.44 392.172 231.64ZM387.822 223.69C386.522 223.69 385.442 224.04 384.582 224.74C383.722 225.42 383.152 226.33 382.872 227.47H392.082C392.002 226.25 391.562 225.32 390.762 224.68C389.962 224.02 388.982 223.69 387.822 223.69ZM404.175 236.8C402.875 236.8 401.695 236.47 400.635 235.81C399.575 235.15 398.735 234.24 398.115 233.08C397.515 231.9 397.215 230.55 397.215 229.03C397.215 227.51 397.515 226.17 398.115 225.01C398.715 223.83 399.535 222.91 400.575 222.25C401.615 221.57 402.815 221.23 404.175 221.23C405.355 221.23 406.335 221.43 407.115 221.83C407.895 222.23 408.505 222.79 408.945 223.51C409.385 224.23 409.695 225.06 409.875 226C410.075 226.94 410.175 227.95 410.175 229.03C410.175 229.83 410.075 230.68 409.875 231.58C409.675 232.48 409.355 233.33 408.915 234.13C408.475 234.93 407.865 235.58 407.085 236.08C406.305 236.56 405.335 236.8 404.175 236.8ZM404.985 234.31C406.045 234.31 406.935 234.08 407.655 233.62C408.395 233.14 408.945 232.5 409.305 231.7C409.665 230.9 409.845 230.01 409.845 229.03C409.845 227.97 409.655 227.04 409.275 226.24C408.915 225.44 408.365 224.82 407.625 224.38C406.905 223.94 406.025 223.72 404.985 223.72C403.425 223.72 402.215 224.22 401.355 225.22C400.515 226.22 400.095 227.49 400.095 229.03C400.095 230.07 400.305 230.99 400.725 231.79C401.145 232.57 401.715 233.19 402.435 233.65C403.175 234.09 404.025 234.31 404.985 234.31ZM409.845 215.53H412.725V236.5H410.085C410.025 236.06 409.965 235.52 409.905 234.88C409.865 234.24 409.845 233.69 409.845 233.23V215.53ZM420.459 215.35V218.44H416.889V215.35H420.459ZM417.249 221.53H420.099V236.5H417.249V221.53ZM438.288 236.5H435.438V221.53H438.288V236.5ZM435.588 229.45L435.618 230.35C435.598 230.61 435.528 231 435.408 231.52C435.308 232.02 435.128 232.57 434.868 233.17C434.628 233.77 434.288 234.35 433.848 234.91C433.428 235.47 432.888 235.93 432.228 236.29C431.568 236.65 430.768 236.83 429.828 236.83C429.188 236.83 428.528 236.74 427.848 236.56C427.188 236.38 426.578 236.08 426.018 235.66C425.458 235.24 425.008 234.67 424.668 233.95C424.328 233.21 424.158 232.29 424.158 231.19V221.53H427.038V230.59C427.038 231.51 427.178 232.23 427.458 232.75C427.758 233.27 428.178 233.64 428.718 233.86C429.258 234.08 429.868 234.19 430.548 234.19C431.588 234.19 432.458 233.94 433.158 233.44C433.878 232.92 434.438 232.3 434.838 231.58C435.238 230.84 435.488 230.13 435.588 229.45ZM442.058 221.53H444.938V236.5H442.058V221.53ZM450.638 221.23C451.478 221.23 452.238 221.35 452.918 221.59C453.598 221.83 454.178 222.19 454.658 222.67C455.138 223.13 455.508 223.71 455.768 224.41C456.048 225.09 456.188 225.87 456.188 226.75V236.5H453.338V227.38C453.338 226.2 453.048 225.32 452.468 224.74C451.908 224.14 451.048 223.84 449.888 223.84C448.988 223.84 448.168 224.05 447.428 224.47C446.688 224.89 446.078 225.45 445.598 226.15C445.138 226.83 444.858 227.6 444.758 228.46L444.728 226.81C444.828 226.01 445.038 225.27 445.358 224.59C445.698 223.91 446.118 223.32 446.618 222.82C447.138 222.3 447.738 221.91 448.418 221.65C449.098 221.37 449.838 221.23 450.638 221.23ZM461.618 221.23C462.458 221.23 463.218 221.35 463.898 221.59C464.578 221.83 465.158 222.19 465.638 222.67C466.118 223.13 466.488 223.71 466.748 224.41C467.028 225.09 467.168 225.87 467.168 226.75V236.5H464.318V227.38C464.318 226.2 464.028 225.32 463.448 224.74C462.888 224.14 462.028 223.84 460.868 223.84C459.968 223.84 459.148 224.05 458.408 224.47C457.668 224.89 457.058 225.45 456.578 226.15C456.118 226.83 455.838 227.6 455.738 228.46L455.708 226.78C455.808 225.98 456.018 225.25 456.338 224.59C456.678 223.91 457.108 223.32 457.628 222.82C458.148 222.3 458.748 221.91 459.428 221.65C460.108 221.37 460.838 221.23 461.618 221.23ZM471.215 240.82L470.615 240.04C470.915 239.52 471.195 238.99 471.455 238.45C471.715 237.91 471.855 237.37 471.875 236.83L470.345 236.5V233.41H474.005V235.63C474.005 236.91 473.725 237.95 473.165 238.75C472.625 239.57 471.975 240.26 471.215 240.82ZM487.137 217.03V233.92H498.597V236.5H484.257V217.03H487.137ZM505.42 215.35V218.44H501.85V215.35H505.42ZM502.21 221.53H505.06V236.5H502.21V221.53ZM515.149 234.16C513.909 234.16 512.769 233.91 511.729 233.41C510.689 232.91 509.859 232.18 509.239 231.22C508.639 230.26 508.339 229.1 508.339 227.74C508.339 226.4 508.639 225.25 509.239 224.29C509.839 223.31 510.649 222.56 511.669 222.04C512.709 221.5 513.869 221.23 515.149 221.23C515.529 221.23 515.889 221.26 516.229 221.32C516.569 221.36 516.899 221.43 517.219 221.53H523.759V224.23C522.859 224.23 521.949 224.08 521.029 223.78C520.129 223.48 519.339 223.16 518.659 222.82L518.569 222.67C519.249 223.03 519.839 223.47 520.339 223.99C520.839 224.49 521.219 225.06 521.479 225.7C521.759 226.32 521.899 227.02 521.899 227.8C521.899 229.12 521.599 230.26 520.999 231.22C520.419 232.18 519.609 232.91 518.569 233.41C517.549 233.91 516.409 234.16 515.149 234.16ZM519.739 242.56V241.87C519.739 240.85 519.459 240.12 518.899 239.68C518.339 239.24 517.519 239.02 516.439 239.02H512.929C512.189 239.02 511.559 238.96 511.039 238.84C510.519 238.72 510.089 238.54 509.749 238.3C509.409 238.08 509.159 237.8 508.999 237.46C508.839 237.14 508.759 236.78 508.759 236.38C508.759 235.6 508.999 235.01 509.479 234.61C509.959 234.21 510.569 233.96 511.309 233.86C512.049 233.74 512.799 233.73 513.559 233.83L515.149 234.16C514.009 234.22 513.139 234.33 512.539 234.49C511.939 234.65 511.639 234.99 511.639 235.51C511.639 235.81 511.759 236.05 511.999 236.23C512.239 236.41 512.579 236.5 513.019 236.5H516.679C517.819 236.5 518.829 236.64 519.709 236.92C520.609 237.22 521.309 237.71 521.809 238.39C522.329 239.09 522.589 240.04 522.589 241.24V242.56H519.739ZM515.149 231.73C515.869 231.73 516.519 231.58 517.099 231.28C517.699 230.96 518.179 230.51 518.539 229.93C518.899 229.33 519.079 228.61 519.079 227.77C519.079 226.91 518.899 226.18 518.539 225.58C518.199 224.96 517.729 224.5 517.129 224.2C516.529 223.88 515.869 223.72 515.149 223.72C514.429 223.72 513.759 223.88 513.139 224.2C512.539 224.5 512.059 224.95 511.699 225.55C511.339 226.15 511.159 226.89 511.159 227.77C511.159 228.61 511.339 229.33 511.699 229.93C512.059 230.51 512.539 230.96 513.139 231.28C513.739 231.58 514.409 231.73 515.149 231.73ZM538.102 236.5V227.47C538.102 226.67 537.972 226.01 537.712 225.49C537.452 224.97 537.062 224.58 536.542 224.32C536.022 224.04 535.362 223.9 534.562 223.9C533.682 223.9 532.872 224.11 532.132 224.53C531.412 224.93 530.822 225.48 530.362 226.18C529.902 226.86 529.622 227.63 529.522 228.49L529.492 226.78C529.592 226 529.802 225.27 530.122 224.59C530.462 223.91 530.882 223.32 531.382 222.82C531.902 222.32 532.502 221.93 533.182 221.65C533.862 221.37 534.602 221.23 535.402 221.23C536.242 221.23 537.002 221.35 537.682 221.59C538.362 221.81 538.942 222.16 539.422 222.64C539.922 223.1 540.302 223.67 540.562 224.35C540.822 225.01 540.952 225.77 540.952 226.63V236.5H538.102ZM526.852 236.5V215.53H529.702V236.5H526.852ZM543.694 221.53H553.384V224.02H543.694V221.53ZM547.114 217.57H549.964V236.5H547.114V217.57Z" fill="white"/>
<rect x="740" y="102" width="218" height="181" rx="16" fill="#448EFC"/>
<rect x="982" y="102" width="218" height="181" rx="16" fill="#F05959"/>
<rect y="329" width="220.8" height="81" rx="16" fill="#00AAAD"/>
<rect x="244.801" y="329" width="220.8" height="81" rx="16" fill="#F95F30"/>
<rect x="489.6" y="329" width="220.8" height="81" rx="16" fill="#EA5C81"/>
<rect x="734.4" y="329" width="220.8" height="81" rx="16" fill="#B2D235"/>
<rect x="979.199" y="329" width="220.8" height="81" rx="16" fill="#FFCC23"/>
<rect y="456" width="384" height="81" rx="16" fill="#1F2C37"/>
<rect x="408" y="456" width="384" height="81" rx="16" fill="#8E969C"/>
<rect x="816" y="456" width="384" height="81" rx="16" fill="#C8C8C8"/>
</svg>
