<svg width="101" height="50" viewBox="0 0 101 50" fill="none" xmlns="http://www.w3.org/2000/svg">
<path d="M7.08 24.7L7.06 23.58L15.78 31H11.94L4.18 24.2L11.08 18.06H14.86L7.08 24.7ZM1.54 18.06H4.2V31H1.54V18.06ZM17.6338 31V18.06H26.4138C27.4138 18.06 28.2804 18.2 29.0138 18.48C29.7604 18.7467 30.3404 19.1733 30.7538 19.76C31.1671 20.3333 31.3738 21.0733 31.3738 21.98C31.3738 22.5933 31.2671 23.1133 31.0538 23.54C30.8404 23.9667 30.5404 24.3133 30.1538 24.58C29.7804 24.8467 29.3471 25.0533 28.8538 25.2C28.3604 25.3333 27.8338 25.42 27.2738 25.46L26.9938 25.3C27.9271 25.3133 28.6938 25.3933 29.2938 25.54C29.8938 25.6733 30.3404 25.9267 30.6338 26.3C30.9404 26.66 31.0938 27.2 31.0938 27.92V31H28.4338V28.1C28.4338 27.6067 28.3471 27.2267 28.1738 26.96C28.0004 26.68 27.6871 26.4867 27.2338 26.38C26.7938 26.2733 26.1538 26.22 25.3138 26.22H20.2938V31H17.6338ZM20.2938 24.14H26.4138C27.1604 24.14 27.7271 23.96 28.1138 23.6C28.5138 23.24 28.7138 22.7533 28.7138 22.14C28.7138 21.5533 28.5138 21.1067 28.1138 20.8C27.7271 20.4933 27.1604 20.34 26.4138 20.34H20.2938V24.14ZM34.5372 18.06H37.1972V31H34.5372V18.06ZM39.7816 26.64H42.4816C42.5349 27.0933 42.7416 27.5067 43.1016 27.88C43.4749 28.24 43.9616 28.5267 44.5616 28.74C45.1616 28.94 45.8349 29.04 46.5816 29.04C47.2616 29.04 47.8216 28.9667 48.2616 28.82C48.7016 28.6733 49.0282 28.4667 49.2416 28.2C49.4549 27.9333 49.5616 27.6133 49.5616 27.24C49.5616 26.88 49.4282 26.6067 49.1616 26.42C48.8949 26.22 48.4749 26.06 47.9016 25.94C47.3282 25.8067 46.5749 25.6733 45.6416 25.54C44.9082 25.4333 44.2149 25.2867 43.5616 25.1C42.9082 24.9 42.3282 24.6467 41.8216 24.34C41.3282 24.0333 40.9349 23.66 40.6416 23.22C40.3616 22.7667 40.2216 22.2333 40.2216 21.62C40.2216 20.86 40.4349 20.1933 40.8616 19.62C41.3016 19.0467 41.9482 18.6 42.8016 18.28C43.6549 17.96 44.7016 17.8 45.9416 17.8C47.8082 17.8 49.2416 18.2 50.2416 19C51.2549 19.7867 51.7482 20.8733 51.7216 22.26H49.1216C49.0682 21.4733 48.7349 20.9067 48.1216 20.56C47.5216 20.2133 46.7616 20.04 45.8416 20.04C44.9882 20.04 44.2816 20.1667 43.7216 20.42C43.1749 20.6733 42.9016 21.1067 42.9016 21.72C42.9016 21.96 42.9682 22.1733 43.1016 22.36C43.2349 22.5333 43.4616 22.6867 43.7816 22.82C44.1016 22.9533 44.5349 23.08 45.0816 23.2C45.6282 23.32 46.3082 23.44 47.1216 23.56C47.8816 23.6667 48.5682 23.8133 49.1816 24C49.8082 24.1733 50.3416 24.4067 50.7816 24.7C51.2349 24.98 51.5816 25.34 51.8216 25.78C52.0616 26.22 52.1816 26.76 52.1816 27.4C52.1816 28.1867 51.9749 28.8733 51.5616 29.46C51.1616 30.0333 50.5349 30.48 49.6816 30.8C48.8416 31.12 47.7482 31.28 46.4016 31.28C45.4416 31.28 44.5949 31.18 43.8616 30.98C43.1282 30.7667 42.4949 30.4867 41.9616 30.14C41.4282 29.7933 40.9949 29.4133 40.6616 29C40.3282 28.5867 40.0882 28.1733 39.9416 27.76C39.8082 27.3467 39.7549 26.9733 39.7816 26.64ZM53.3883 18.06H67.0283V20.28H53.3883V18.06ZM58.8883 20H61.5483V31H58.8883V20ZM71.6219 25.6V28.78H81.6019V31H68.9619V18.06H81.5819V20.28H71.6219V23.5H79.7819V25.6H71.6219ZM97.453 28.36L96.613 28.7V18.06H99.273V31H96.613L86.153 20.78L86.993 20.44V31H84.333V18.06H86.993L97.453 28.36Z" fill="white"/>
<rect width="100" height="50" transform="translate(1)" fill="#131516"/>
<path d="M20.866 28.374V11.826H26.452V28.752C26.452 30.18 26.186 31.538 25.654 32.826C25.15 34.114 24.38 35.262 23.344 36.27C22.336 37.25 21.076 38.02 19.564 38.58C18.08 39.14 16.344 39.42 14.356 39.42C12.816 39.42 11.318 39.224 9.862 38.832C8.434 38.44 7.146 37.852 5.998 37.068C4.85 36.256 3.926 35.248 3.226 34.044C2.526 32.812 2.148 31.37 2.092 29.718H7.384C7.692 31.314 8.476 32.532 9.736 33.372C11.024 34.184 12.564 34.59 14.356 34.59C15.896 34.59 17.142 34.324 18.094 33.792C19.046 33.232 19.746 32.49 20.194 31.566C20.642 30.614 20.866 29.55 20.866 28.374ZM33.7019 11.826H39.2879V39H33.7019V11.826ZM67.6471 36.228H65.0011L80.6251 11.826H86.2111V39H80.6251V19.26L81.9691 19.638L69.4951 39H63.2371L50.7631 19.722L52.1071 19.344V39H46.5211V11.826H52.1071L67.6471 36.228ZM98.2917 34.212V39H91.9497V34.212H98.2917Z" fill="white"/>
</svg>
