<svg width="99" height="15" viewBox="0 0 99 15" fill="none" xmlns="http://www.w3.org/2000/svg">
<path d="M6.08 7.7L6.06 6.58L14.78 14H10.94L3.18 7.2L10.08 1.06H13.86L6.08 7.7ZM0.54 1.06H3.2V14H0.54V1.06ZM16.6338 14V1.06H25.4138C26.4138 1.06 27.2804 1.2 28.0138 1.48C28.7604 1.74667 29.3404 2.17333 29.7538 2.76C30.1671 3.33333 30.3738 4.07333 30.3738 4.98C30.3738 5.59333 30.2671 6.11333 30.0538 6.54C29.8404 6.96667 29.5404 7.31333 29.1538 7.58C28.7804 7.84667 28.3471 8.05333 27.8538 8.2C27.3604 8.33333 26.8338 8.42 26.2738 8.46L25.9938 8.3C26.9271 8.31333 27.6938 8.39333 28.2938 8.54C28.8938 8.67333 29.3404 8.92667 29.6338 9.3C29.9404 9.66 30.0938 10.2 30.0938 10.92V14H27.4338V11.1C27.4338 10.6067 27.3471 10.2267 27.1738 9.96C27.0004 9.68 26.6871 9.48667 26.2338 9.38C25.7938 9.27333 25.1538 9.22 24.3138 9.22H19.2938V14H16.6338ZM19.2938 7.14H25.4138C26.1604 7.14 26.7271 6.96 27.1138 6.6C27.5138 6.24 27.7138 5.75333 27.7138 5.14C27.7138 4.55333 27.5138 4.10667 27.1138 3.8C26.7271 3.49333 26.1604 3.34 25.4138 3.34H19.2938V7.14ZM33.5372 1.06H36.1972V14H33.5372V1.06ZM38.7816 9.64H41.4816C41.5349 10.0933 41.7416 10.5067 42.1016 10.88C42.4749 11.24 42.9616 11.5267 43.5616 11.74C44.1616 11.94 44.8349 12.04 45.5816 12.04C46.2616 12.04 46.8216 11.9667 47.2616 11.82C47.7016 11.6733 48.0282 11.4667 48.2416 11.2C48.4549 10.9333 48.5616 10.6133 48.5616 10.24C48.5616 9.88 48.4282 9.60667 48.1616 9.42C47.8949 9.22 47.4749 9.06 46.9016 8.94C46.3282 8.80667 45.5749 8.67333 44.6416 8.54C43.9082 8.43333 43.2149 8.28667 42.5616 8.1C41.9082 7.9 41.3282 7.64667 40.8216 7.34C40.3282 7.03333 39.9349 6.66 39.6416 6.22C39.3616 5.76667 39.2216 5.23333 39.2216 4.62C39.2216 3.86 39.4349 3.19333 39.8616 2.62C40.3016 2.04667 40.9482 1.6 41.8016 1.28C42.6549 0.959999 43.7016 0.799999 44.9416 0.799999C46.8082 0.799999 48.2416 1.2 49.2416 2C50.2549 2.78667 50.7482 3.87333 50.7216 5.26H48.1216C48.0682 4.47333 47.7349 3.90667 47.1216 3.56C46.5216 3.21333 45.7616 3.04 44.8416 3.04C43.9882 3.04 43.2816 3.16667 42.7216 3.42C42.1749 3.67333 41.9016 4.10667 41.9016 4.72C41.9016 4.96 41.9682 5.17333 42.1016 5.36C42.2349 5.53333 42.4616 5.68667 42.7816 5.82C43.1016 5.95333 43.5349 6.08 44.0816 6.2C44.6282 6.32 45.3082 6.44 46.1216 6.56C46.8816 6.66667 47.5682 6.81333 48.1816 7C48.8082 7.17333 49.3416 7.40667 49.7816 7.7C50.2349 7.98 50.5816 8.34 50.8216 8.78C51.0616 9.22 51.1816 9.76 51.1816 10.4C51.1816 11.1867 50.9749 11.8733 50.5616 12.46C50.1616 13.0333 49.5349 13.48 48.6816 13.8C47.8416 14.12 46.7482 14.28 45.4016 14.28C44.4416 14.28 43.5949 14.18 42.8616 13.98C42.1282 13.7667 41.4949 13.4867 40.9616 13.14C40.4282 12.7933 39.9949 12.4133 39.6616 12C39.3282 11.5867 39.0882 11.1733 38.9416 10.76C38.8082 10.3467 38.7549 9.97333 38.7816 9.64ZM52.3883 1.06H66.0283V3.28H52.3883V1.06ZM57.8883 3H60.5483V14H57.8883V3ZM70.6219 8.6V11.78H80.6019V14H67.9619V1.06H80.5819V3.28H70.6219V6.5H78.7819V8.6H70.6219ZM96.453 11.36L95.613 11.7V1.06H98.273V14H95.613L85.153 3.78L85.993 3.44V14H83.333V1.06H85.993L96.453 11.36Z" fill="white"/>
</svg>
