<svg width="40" height="40" viewBox="0 0 40 40" fill="none" xmlns="http://www.w3.org/2000/svg">
<path d="M39.672 6.85475V39.7508H7.11621V32.4539H26.7829L26.9079 32.1853C26.022 31.3179 25.1187 30.467 24.2558 29.5748C23.7008 29.0021 23.2379 28.3373 22.675 27.7735C21.3416 26.4375 19.952 25.1596 18.627 23.8156C17.4454 22.6177 16.35 21.3314 15.1633 20.1406C13.7604 18.7314 12.2762 17.4038 10.8716 15.9962C9.70746 14.8278 8.63829 13.563 7.47371 12.3954C6.04621 10.9638 4.55496 9.59833 3.10787 8.18696C2.25621 7.35623 1.45371 6.4737 0.594958 5.65096C0.129956 5.20549 0.040376 4.87749 0.566624 4.39033C1.98871 3.07371 3.3583 1.69813 4.78288 0.384029C4.90334 0.322842 5.03721 0.293732 5.17188 0.299479C5.30659 0.305227 5.43754 0.34563 5.55246 0.41686C7.31079 2.11791 9.02871 3.8615 10.7708 5.57938C12.0662 6.85644 13.407 8.0876 14.6812 9.3857C15.9312 10.6602 17.0925 12.0261 18.3508 13.2931C19.7258 14.6792 21.195 15.9722 22.577 17.3529C23.815 18.5899 24.9654 19.9166 26.1995 21.1575C27.5537 22.5188 28.9766 23.8101 30.3362 25.1663C30.9545 25.7832 31.4925 26.4825 32.067 27.1453L32.3679 27.0076V6.85475H39.672Z" stroke="#8ED6FF"/>
</svg>
